<svg xmlns="http://www.w3.org/2000/svg" viewBox="0 0 158.93 181.26"><g id="Layer_2" data-name="Layer 2"><g id="Layer_2-2" data-name="Layer 2"><g id="Layer_5" data-name="Layer 5"><path d="M136.91,100.93c-3.86,21.14-20.25,32.5-38.72,35.28-.93,1.54-1.9,3.06-3,4.54a70.54,70.54,0,0,1-16.71,16.72A33.24,33.24,0,0,1,87.9,175.9C122.88,165.33,147.59,135.92,136.91,100.93Z"/><path d="M154.5,94.07c-4.33,55.38-98.72,54.4-101.17-1.31,0-20.24,16.81-37.17,39.33-41.48a30.2,30.2,0,0,0-12.07-2.14c-46,.2-75.8,31.75-75.43,64.17.41,35.79,32.81,69.12,73,67.91C129.68,179.69,173.23,138.56,154.5,94.07Z"/><path d="M8.12,89.51h0c.37-.9.76-1.78,1.18-2.66l.12-.25c.38-.78.77-1.55,1.18-2.31.11-.21.23-.41.35-.62.36-.64.72-1.28,1.1-1.91l.57-.89c.34-.53.67-1.06,1-1.58s.52-.73.78-1.1.62-.87,1-1.31.65-.83,1-1.24.58-.74.88-1.1.78-.9,1.17-1.35c.28-.3.54-.62.82-.92.44-.48.9-.94,1.36-1.41l.76-.78c.5-.5,1-1,1.54-1.46.23-.21.45-.44.69-.65.57-.51,1.16-1,1.74-1.51l.6-.51q1-.8,2-1.56l.46-.37c.75-.57,1.52-1.12,2.3-1.67l.24-.17a84.76,84.76,0,0,1,29.73-12.8h0c1.06-.24,2.13-.45,3.2-.65l.31,0c1-.18,2-.34,2.95-.48l.58-.08c.89-.12,1.79-.24,2.69-.33l.89-.09c.79-.07,1.59-.15,2.39-.2l1.22-.07c.69,0,1.37-.08,2.06-.1.53,0,1.07,0,1.61,0h1.65c.68,0,1.36,0,2,0l1.22,0q1.24.06,2.49.15l.75.06q1.48.12,3,.3l.24,0c1.09.14,2.17.29,3.25.47h0l.88.13a46,46,0,0,0-34.69-28A44.11,44.11,0,0,1,80,1.79,63.1,63.1,0,0,0,49.51,2,73.69,73.69,0,0,0,10.9,30.69c-1.33,2-2.51,4.07-2.51,4.07s-1.68,2.94-3,6A61.54,61.54,0,0,0,0,63.79,48.12,48.12,0,0,0,8.12,89.51Z"/><path d="M80.1,27.52q1.47-5.65,2.83-11.72c.88-3.92,1.66-7.76,2.35-11.48A34.27,34.27,0,0,0,73.55,8.71a34.62,34.62,0,0,0-11.26,11A45.89,45.89,0,0,1,80.1,27.52Z"/></g></g></g></svg>