<svg xmlns="http://www.w3.org/2000/svg" viewBox="0 0 136.75 127.83"><g fill="#3769F1" id="Layer_2" data-name="Layer 2"><g fill="#3769F1" id="Layer_1-2" data-name="Layer 1"><path class="cls-1" fill="#3769F1" d="M128.09,123.83l-119.46-.2a4.82,4.82,0,0,1-4.63-5v-39a4.83,4.83,0,0,1,4.64-5h0a4.83,4.83,0,0,1,4.64,5v29.06a4.84,4.84,0,0,0,4.63,5l100.9.17a4.83,4.83,0,0,0,4.65-5V79.59a4.83,4.83,0,0,1,4.64-5h0a4.83,4.83,0,0,1,4.64,5v39.24a4.82,4.82,0,0,1-4.63,5Z"/><path d="M69.56,0h0c6,.06,10.76,3.44,10.71,7.53L79.19,92.46l-21.6-.22L58.67,7.31C58.72,3.21,63.6-.06,69.56,0Z"/><path d="M25.79,57.64h0a12.57,12.57,0,0,1,15.28,0L58.74,72.2a15.89,15.89,0,0,0,19.35,0l17.7-14.5a12.56,12.56,0,0,1,15.27,0h0a7.77,7.77,0,0,1,0,12.5L76.05,99a12.55,12.55,0,0,1-15.32,0l-35-28.77a7.74,7.74,0,0,1-1.68-10.83A7.59,7.59,0,0,1,25.79,57.64Z"/></g></g></svg>