<svg xmlns="http://www.w3.org/2000/svg" viewBox="0 0 134.69 116.73"><g fill="#009BFF" id="Layer_2" data-name="Layer 2"><g fill="#009BFF" id="Layer_2-2" data-name="Layer 2"><circle fill="#009BFF" class="cls-1" cx="106.75" cy="88.8" r="11.85"/><circle fill="#009BFF" class="cls-2" cx="106.75" cy="88.8" r="20.43"/><circle fill="#009BFF" class="cls-3" cx="106.77" cy="83.12" r="7.81"/><path class="cls-3" fill="#009BFF" d="M94.3,100.59a17.34,17.34,0,0,0,11.18,5.21h2.57a17.42,17.42,0,0,0,11-5v-.17a7.19,7.19,0,0,0-7.19-7.19H101.49a7.19,7.19,0,0,0-7.19,7.19Z"/><path class="cls-4" d="M71.64,88.86a35,35,0,0,1,58.45-26V40.2a7.71,7.71,0,0,0-7.71-7.71H8.21A7.71,7.71,0,0,0,.5,40.2v62.54a7.71,7.71,0,0,0,7.71,7.71H79.1A34.84,34.84,0,0,1,71.64,88.86Z"/><rect x="14.06" y="15.56" width="105.01" height="10" rx="5"/><rect x="61.56" y="-37.16" width="10" height="84.78" rx="5" transform="translate(60.92 71.76) rotate(-89.65)"/></g></g></svg>