<svg xmlns="http://www.w3.org/2000/svg" viewBox="0 0 136.74 127.79"><g fill="#3769F1" id="Layer_2" data-name="Layer 2"><g fill="#3769F1" id="Layer_2-2" data-name="Layer 2"><path class="cls-1" fill="#3769F1" d="M128.09,123.79l-119.46-.2a4.82,4.82,0,0,1-4.63-5v-39a4.83,4.83,0,0,1,4.64-5h0a4.83,4.83,0,0,1,4.64,5v29.06a4.83,4.83,0,0,0,4.63,5l100.9.17a4.83,4.83,0,0,0,4.65-5V79.55a4.83,4.83,0,0,1,4.64-5h0a4.83,4.83,0,0,1,4.64,5v39.24A4.82,4.82,0,0,1,128.09,123.79Z"/><path d="M67.23,101.52h0c-6-.06-10.76-3.44-10.71-7.53L57.59,9.06l21.6.22L78.12,94.21C78.07,98.31,73.19,101.58,67.23,101.52Z"/><path d="M111,43.88h0a12.57,12.57,0,0,1-15.28,0L78.05,29.32a15.88,15.88,0,0,0-19.35,0L41,43.82a12.56,12.56,0,0,1-15.27,0h0a7.75,7.75,0,0,1,0-12.5l35-28.75a12.56,12.56,0,0,1,15.32,0l35,28.77A7.75,7.75,0,0,1,111,43.88Z"/></g></g></svg>